# Blender v2.80 (sub 75) OBJ File: 'ship.blend'
# www.blender.org
v 0.429222 -0.000000 -0.016382
v 0.429222 -0.014187 0.008191
v 0.429222 0.014187 0.008191
v -0.210026 0.129191 0.084683
v -0.210026 0.151185 0.034936
v -0.210026 0.110669 -0.001354
v -0.210026 0.063635 0.025964
v -0.210026 0.075082 0.079138
v -0.210026 -0.129191 0.084683
v -0.210026 -0.151185 0.034936
v -0.210026 -0.110669 -0.001354
v -0.210026 -0.063635 0.025964
v -0.210026 -0.075082 0.079138
v 0.080948 -0.307743 0.037542
v 0.080948 -0.315343 0.065680
v 0.080948 -0.279605 0.045142
v 0.080948 -0.287204 0.073280
v 0.238047 -0.212333 0.074266
v 0.242672 -0.207253 0.059907
v 0.231579 -0.218602 0.061142
v 0.238047 0.212333 0.074266
v 0.242672 0.207253 0.059907
v 0.231579 0.218602 0.061142
v 0.323935 -0.166147 0.074266
v 0.328560 -0.161067 0.059907
v 0.317467 -0.172415 0.061142
v 0.323935 0.166147 0.074266
v 0.328560 0.161067 0.059907
v 0.317467 0.172415 0.061142
v 0.103207 0.247024 0.055221
v -0.224842 0.584837 0.055221
v -0.175372 0.118040 0.104995
v 0.192758 0.000000 -0.030898
v 0.552202 0.000000 0.055221
v 0.103207 -0.247024 0.055221
v -0.126417 0.000000 -0.040537
v -0.151538 0.000000 0.055221
v -0.130084 0.000000 0.166183
v -0.224842 -0.584837 0.055221
v -0.175372 -0.118040 0.104995
v 0.273719 -0.129534 0.062221
v 0.251376 -0.095024 0.076056
v 0.291324 -0.124568 0.060826
v 0.291324 0.124568 0.060826
v 0.251376 0.095024 0.076056
v 0.273719 0.129534 0.062221
v 0.188568 -0.176443 0.062203
v 0.166225 -0.141933 0.076038
v 0.206173 -0.171477 0.060808
v 0.206173 0.171477 0.060808
v 0.166225 0.141933 0.076038
v 0.188568 0.176443 0.062203
v -0.042439 -0.307743 0.037542
v 0.022147 -0.279605 0.045142
v 0.039606 -0.312518 0.055221
v -0.082331 -0.287204 0.073280
v -0.047998 -0.315343 0.065680
v 0.068924 -0.282327 0.055221
v -0.180930 -0.126446 0.079957
v -0.180657 -0.145792 0.036097
v -0.188001 -0.140956 0.049794
v -0.161893 -0.109748 0.007640
v -0.170658 -0.080016 0.073630
v -0.173450 -0.074840 0.051603
v -0.166456 -0.071120 0.029273
v -0.168118 -0.082478 0.022385
v -0.180395 0.118040 0.079014
v -0.170658 0.080016 0.073630
v -0.173450 0.074840 0.051603
v -0.166456 0.071120 0.029273
v -0.168118 0.082478 0.022385
v -0.161893 0.109748 0.007640
v -0.188001 0.140957 0.049794
v -0.180657 0.145792 0.036097
v 0.253344 0.000000 -0.016382
v 0.330120 -0.014187 0.008191
v 0.330120 0.014187 0.008191
v 0.355907 0.000000 0.008191
vn -0.9784 0.0835 0.1892
vn -0.0000 -0.8660 -0.5000
vn 0.1541 -0.2801 0.9475
vn 1.0000 -0.0000 0.0000
vn -1.0000 0.0000 0.0000
vn 0.0000 -0.2607 0.9654
vn -0.5701 -0.5959 0.5656
vn 0.7140 -0.6999 -0.0176
vn -0.5701 0.5959 0.5656
vn 0.7140 0.6999 -0.0176
vn -0.0668 0.0431 -0.9968
vn 0.6370 0.6390 0.4313
vn -0.0668 -0.0431 -0.9968
vn 0.6370 -0.6390 0.4313
vn -0.0466 0.4456 0.8940
vn 0.1541 0.2801 0.9475
vn 0.0284 0.3382 -0.9406
vn -0.0466 -0.4456 0.8940
vn 0.0284 -0.3382 -0.9406
vn 0.1215 -0.1180 0.9856
vn -0.8695 0.0662 -0.4895
vn 0.1502 -0.6596 -0.7364
vn 0.0000 0.9654 0.2607
vn 0.0000 0.8660 -0.5000
vn 0.1502 -0.4965 -0.8549
vn 0.1502 -0.9042 0.3998
vn 0.1502 0.4965 -0.8549
vn 0.1502 0.9665 0.2081
vn 0.1502 -0.9665 0.2081
vn 0.0000 -0.0000 1.0000
vn -0.9276 0.2834 -0.2433
vn 0.2145 0.3900 -0.8955
vn -0.8695 -0.0662 -0.4895
vn 0.1215 0.1180 0.9856
vn 0.2145 -0.3900 -0.8955
vn 0.1502 0.9042 0.3998
vn 0.1962 -0.1905 -0.9619
vn 0.0000 -0.9654 -0.2607
vn -0.9459 -0.2681 0.1829
vn 0.0000 0.2607 -0.9654
vn -0.9632 0.2316 0.1361
vn 0.1502 0.1008 0.9835
vn 0.1502 -0.1008 0.9835
vn -0.9276 -0.2834 -0.2433
vn 0.1502 0.6596 -0.7364
vn 0.3870 0.7718 0.5046
vn -0.9784 -0.0835 0.1892
vn 0.1962 0.1905 -0.9619
vn -0.9459 0.2681 0.1829
s off
f 61//1 39//1 40//1
f 1//2 2//2 76//2
f 47//3 48//3 35//3
f 1//4 3//4 2//4
f 12//5 10//5 9//5
f 8//5 5//5 6//5
f 17//6 56//6 57//6
f 18//7 48//7 47//7
f 18//8 20//8 19//8
f 52//9 51//9 21//9
f 21//10 22//10 23//10
f 29//11 28//11 44//11
f 24//12 25//12 43//12
f 43//13 25//13 26//13
f 24//8 26//8 25//8
f 23//11 22//11 50//11
f 21//14 51//14 50//14
f 27//10 28//10 29//10
f 27//14 45//14 44//14
f 30//15 32//15 38//15
f 45//16 34//16 44//16
f 36//17 30//17 33//17
f 52//16 30//16 51//16
f 35//18 38//18 40//18
f 36//19 33//19 35//19
f 39//20 56//20 40//20
f 39//21 62//21 36//21
f 60//22 10//22 11//22
f 49//13 19//13 20//13
f 17//23 16//23 58//23
f 77//24 3//24 1//24
f 71//25 6//25 72//25
f 9//26 61//26 59//26
f 66//27 12//27 65//27
f 12//28 64//28 65//28
f 8//29 69//29 68//29
f 78//30 3//30 77//30
f 15//4 14//4 16//4
f 18//12 19//12 49//12
f 37//31 65//31 64//31
f 27//9 29//9 46//9
f 61//1 40//1 59//1
f 77//32 30//32 34//32
f 1//2 76//2 75//2
f 74//33 31//33 72//33
f 31//34 32//34 30//34
f 34//35 76//35 78//35
f 5//36 4//36 73//36
f 36//37 54//37 53//37
f 14//38 15//38 55//38
f 68//39 32//39 67//39
f 14//40 53//40 54//40
f 40//41 63//41 59//41
f 13//42 9//42 59//42
f 67//43 4//43 8//43
f 41//7 26//7 24//7
f 36//44 70//44 71//44
f 74//45 72//45 6//45
f 73//46 4//46 67//46
f 73//47 67//47 32//47
f 38//3 48//3 42//3
f 35//3 43//3 49//3
f 50//16 51//16 45//16
f 10//5 12//5 11//5
f 12//5 9//5 13//5
f 5//5 8//5 4//5
f 8//5 6//5 7//5
f 17//6 57//6 15//6
f 18//7 47//7 20//7
f 52//9 21//9 23//9
f 29//11 44//11 46//11
f 24//12 43//12 42//12
f 43//13 26//13 41//13
f 23//11 50//11 52//11
f 21//14 50//14 22//14
f 27//14 44//14 28//14
f 44//16 34//16 30//16
f 34//16 45//16 38//16
f 51//16 38//16 45//16
f 30//16 50//16 44//16
f 44//16 50//16 46//16
f 51//16 30//16 38//16
f 30//16 52//16 50//16
f 57//20 39//20 55//20
f 40//20 56//20 35//20
f 35//20 56//20 58//20
f 56//20 39//20 57//20
f 60//21 39//21 61//21
f 36//21 62//21 66//21
f 62//21 39//21 60//21
f 60//22 11//22 62//22
f 49//13 20//13 47//13
f 17//23 58//23 56//23
f 58//23 16//23 54//23
f 77//24 1//24 75//24
f 6//25 71//25 7//25
f 7//25 71//25 70//25
f 61//26 10//26 60//26
f 10//26 61//26 9//26
f 12//27 66//27 11//27
f 11//27 66//27 62//27
f 64//28 13//28 63//28
f 13//28 64//28 12//28
f 69//29 7//29 70//29
f 7//29 69//29 8//29
f 3//30 78//30 2//30
f 2//30 78//30 76//30
f 15//4 16//4 17//4
f 18//12 49//12 48//12
f 65//31 36//31 66//31
f 36//31 65//31 37//31
f 27//9 46//9 45//9
f 33//32 30//32 75//32
f 75//32 30//32 77//32
f 77//32 34//32 78//32
f 72//33 36//33 71//33
f 31//33 74//33 73//33
f 72//33 31//33 36//33
f 31//48 30//48 36//48
f 76//35 35//35 75//35
f 75//35 35//35 33//35
f 35//35 76//35 34//35
f 5//36 73//36 74//36
f 58//37 54//37 35//37
f 35//37 54//37 36//37
f 39//37 53//37 55//37
f 36//37 53//37 39//37
f 14//38 55//38 53//38
f 55//38 15//38 57//38
f 32//39 68//39 38//39
f 38//39 68//39 37//39
f 37//39 68//39 69//39
f 14//40 54//40 16//40
f 64//49 63//49 37//49
f 37//49 63//49 38//49
f 38//49 63//49 40//49
f 13//42 59//42 63//42
f 67//43 8//43 68//43
f 41//7 24//7 42//7
f 70//44 37//44 69//44
f 37//44 70//44 36//44
f 74//45 6//45 5//45
f 73//47 32//47 31//47
f 41//3 42//3 49//3
f 49//3 42//3 48//3
f 48//3 38//3 35//3
f 42//3 34//3 38//3
f 35//3 49//3 47//3
f 49//3 43//3 41//3
f 43//3 34//3 42//3
f 34//3 43//3 35//3
f 50//16 45//16 46//16
