# Blender v2.80 (sub 75) OBJ File: 'ship.blend'
# www.blender.org
mtllib ship.mtl
o Cube_Cube.002
v -0.000000 -0.429222 -0.016382
v -0.014187 -0.429222 0.008191
v 0.014187 -0.429222 0.008191
v 0.129191 0.210026 0.084683
v 0.151185 0.210026 0.034936
v 0.110669 0.210026 -0.001354
v 0.063635 0.210026 0.025964
v 0.075082 0.210026 0.079138
v -0.129191 0.210026 0.084683
v -0.151185 0.210026 0.034936
v -0.110669 0.210026 -0.001354
v -0.063635 0.210026 0.025964
v -0.075082 0.210026 0.079138
v -0.307743 -0.080948 0.037542
v -0.315343 -0.080948 0.065680
v -0.279605 -0.080948 0.045142
v -0.287204 -0.080948 0.073280
v 0.307743 -0.080948 0.037542
v 0.315343 -0.080948 0.065680
v 0.279605 -0.080948 0.045142
v 0.287204 -0.080948 0.073280
v -0.212333 -0.238047 0.074266
v -0.207253 -0.242672 0.059907
v -0.218602 -0.231579 0.061142
v 0.212333 -0.238047 0.074266
v 0.207253 -0.242672 0.059907
v 0.218602 -0.231579 0.061142
v -0.166147 -0.323935 0.074266
v -0.161067 -0.328560 0.059907
v -0.172415 -0.317467 0.061142
v 0.166147 -0.323935 0.074266
v 0.161067 -0.328560 0.059907
v 0.172415 -0.317467 0.061142
v 0.247024 -0.103207 0.055221
v 0.584837 0.224842 0.055221
v 0.118040 0.175372 0.104995
v 0.000000 -0.192758 -0.030898
v 0.000000 -0.552202 0.055221
v -0.247024 -0.103207 0.055221
v 0.000000 0.126417 -0.040537
v 0.000000 0.151538 0.055221
v 0.000000 0.130084 0.166183
v -0.584837 0.224842 0.055221
v -0.118040 0.175372 0.104995
v -0.129534 -0.273719 0.062221
v -0.095024 -0.251376 0.076056
v -0.124568 -0.291324 0.060826
v 0.124568 -0.291324 0.060826
v 0.095024 -0.251376 0.076056
v 0.129534 -0.273719 0.062221
v -0.176443 -0.188568 0.062203
v -0.141933 -0.166225 0.076038
v -0.171477 -0.206173 0.060808
v 0.171477 -0.206173 0.060808
v 0.141933 -0.166225 0.076038
v 0.176443 -0.188568 0.062203
v -0.307743 0.042439 0.037542
v -0.279605 -0.022147 0.045142
v -0.312518 -0.039606 0.055221
v -0.287204 0.082331 0.073280
v -0.315343 0.047998 0.065680
v 0.279605 -0.022147 0.045142
v 0.307743 0.042439 0.037542
v 0.282327 -0.068924 0.055221
v 0.287204 0.082331 0.073280
v -0.282327 -0.068924 0.055221
v 0.315343 0.047998 0.065680
v 0.312518 -0.039606 0.055221
v -0.126446 0.180930 0.079957
v -0.145792 0.180657 0.036097
v -0.140956 0.188001 0.049794
v -0.109748 0.161893 0.007640
v -0.080016 0.170658 0.073630
v -0.074840 0.173450 0.051603
v -0.071120 0.166456 0.029273
v -0.082478 0.168118 0.022385
v 0.118040 0.180395 0.079014
v 0.080016 0.170658 0.073630
v 0.074840 0.173450 0.051603
v 0.071120 0.166456 0.029273
v 0.082478 0.168118 0.022385
v 0.109748 0.161893 0.007640
v 0.140957 0.188001 0.049794
v 0.145792 0.180657 0.036097
v 0.000000 -0.253344 -0.016382
v -0.014187 -0.330120 0.008191
v 0.014187 -0.330120 0.008191
v 0.000000 -0.355907 0.008191
vt 0.625000 0.618863
vt 0.625000 0.500000
vt 0.687500 0.625000
vt 0.000000 0.000000
vt 0.000000 0.000000
vt 0.000000 0.000000
vt 0.867135 0.571431
vt 0.851550 0.606357
vt 0.875000 0.500000
vt 0.000000 0.000000
vt 0.000000 0.000000
vt 0.000000 0.000000
vt 0.000000 0.000000
vt 0.000000 0.000000
vt 0.000000 0.000000
vt 0.000000 0.000000
vt 0.625000 0.500000
vt 0.859131 0.500000
vt 0.809899 0.750000
vt 0.375000 0.500000
vt 0.375000 0.750000
vt 0.625000 0.750000
vt 0.000000 0.000000
vt 0.000000 0.000000
vt 0.000000 0.000000
vt 0.000000 0.000000
vt 0.000000 0.000000
vt 0.532073 0.809282
vt 0.000000 0.000000
vt 0.000000 0.000000
vt 0.000000 0.000000
vt 0.000000 0.000000
vt 0.000000 0.000000
vt 0.000000 0.000000
vt 0.000000 0.000000
vt 0.000000 0.000000
vt 0.000000 0.000000
vt 0.000000 0.000000
vt 0.000000 0.000000
vt 0.000000 0.000000
vt 0.000000 0.000000
vt 0.000000 0.000000
vt 0.000000 0.000000
vt 0.875000 0.500000
vt 0.687500 0.625000
vt 0.750000 0.750000
vt 0.851529 0.653831
vt 0.875000 0.750000
vt 0.868686 0.623932
vt 0.375000 0.750000
vt 0.625000 0.250000
vt 0.375000 0.000000
vt 0.867135 0.571431
vt 0.851550 0.606357
vt 0.625000 0.250000
vt 0.742603 0.545352
vt 0.507141 0.671248
vt 0.000000 0.000000
vt 0.000000 0.000000
vt 0.000000 0.000000
vt 0.625000 0.500000
vt 0.464553 0.482758
vt 0.375000 0.500000
vt 0.464553 0.482758
vt 0.000000 0.000000
vt 0.000000 0.000000
vt 0.000000 0.000000
vt 0.000000 0.000000
vt 0.000000 0.000000
vt 0.000000 0.000000
vt 0.000000 0.000000
vt 0.000000 0.000000
vt 0.000000 0.000000
vt 0.000000 0.000000
vt 0.000000 0.000000
vt 0.625000 0.750000
vt 0.375000 0.750000
vt 0.809899 0.750000
vt 0.625000 0.750000
vt 0.566235 0.674686
vt 0.625000 0.670747
vt 0.000000 0.000000
vt 0.659179 0.622749
vt 0.488473 0.014358
vt 0.625000 0.000000
vt 0.000000 0.000000
vt 0.586188 0.632067
vt 0.625000 0.500000
vt 0.507141 0.671248
vt 0.598685 0.345984
vt 0.578844 0.420998
vt 0.742603 0.545352
vt 0.488473 0.014358
vt 0.488473 0.000000
vt 0.000000 0.000000
vt 0.000000 0.000000
vt 0.598685 0.345984
vt 0.578844 0.420998
vt 0.532073 0.809282
vt 0.650096 0.665266
vt 0.658232 0.625000
vt 0.198072 0.750000
vt 0.290684 0.500000
vt 0.650096 0.665266
vt 0.658232 0.625000
vt 0.000000 0.000000
vt 0.290684 0.500000
vt 0.198072 0.750000
vt 0.000000 0.000000
vt 0.000000 0.000000
vt 0.566235 0.674686
vt 0.549683 0.662658
vt 0.000000 0.000000
vt 0.625000 0.618863
vt 0.659179 0.622749
vt 0.851530 0.653831
vt 0.868686 0.623932
vt 0.868707 0.576458
vt 0.868707 0.576458
vt 0.000000 0.000000
vt 0.625000 0.934899
vt 0.375000 0.926928
vt 0.000000 0.000000
vt 0.867115 0.618905
vt 0.764981 0.526267
vt 0.826531 0.500000
vt 0.848874 0.500000
vt 0.586188 0.632067
vt 0.549683 0.662658
vt 0.000000 0.000000
vt 0.375000 0.415684
vt 0.625000 0.265869
vt 0.625000 0.265869
vt 0.375000 0.415684
vt 0.000000 0.000000
vt 0.000000 0.000000
vt 0.859131 0.500000
vt 0.417139 0.000000
vt 0.625000 0.298469
vt 0.625000 0.276126
vt 0.848874 0.500000
vt 0.764981 0.526267
vt 0.826531 0.500000
vt 0.625000 0.276126
vt 0.625000 0.298469
vt 0.375000 0.926928
vt 0.625000 0.934899
vt 0.625000 0.670747
vt 0.867115 0.618905
vn 0.0835 0.9784 0.1892
vn -0.8660 0.0000 -0.5000
vn -0.2801 -0.1541 0.9475
vn 0.0000 -1.0000 0.0000
vn 0.0000 1.0000 -0.0000
vn -0.2607 0.0000 0.9654
vn -0.5959 0.5701 0.5656
vn -0.6999 -0.7140 -0.0176
vn 0.9654 0.0000 -0.2607
vn 0.5959 0.5701 0.5656
vn 0.6999 -0.7140 -0.0176
vn 0.0431 0.0668 -0.9968
vn 0.6390 -0.6370 0.4313
vn -0.0431 0.0668 -0.9968
vn -0.6390 -0.6370 0.4313
vn 0.4456 0.0466 0.8940
vn 0.2801 -0.1541 0.9475
vn 0.3382 -0.0284 -0.9406
vn -0.4456 0.0466 0.8940
vn -0.3382 -0.0284 -0.9406
vn -0.1180 -0.1215 0.9856
vn 0.0662 0.8695 -0.4895
vn -0.6596 -0.1502 -0.7364
vn -0.9654 0.0000 0.2607
vn 0.9654 0.0000 0.2607
vn 0.8660 0.0000 -0.5000
vn -0.4965 -0.1502 -0.8549
vn -0.9042 -0.1502 0.3998
vn 0.4965 -0.1502 -0.8549
vn 0.9665 -0.1502 0.2081
vn -0.9665 -0.1502 0.2081
vn -0.0000 -0.0000 1.0000
vn 0.2607 0.0000 0.9654
vn 0.2834 0.9276 -0.2433
vn 0.3900 -0.2145 -0.8955
vn -0.0662 0.8695 -0.4895
vn 0.1905 -0.1962 -0.9619
vn 0.1180 -0.1215 0.9856
vn -0.3900 -0.2145 -0.8955
vn 0.9042 -0.1502 0.3998
vn -0.1905 -0.1962 -0.9619
vn -0.9654 0.0000 -0.2607
vn -0.2681 0.9459 0.1829
vn 0.2607 0.0000 -0.9654
vn 0.2316 0.9632 0.1361
vn 0.1008 -0.1502 0.9835
vn -0.2607 0.0000 -0.9654
vn -0.1008 -0.1502 0.9835
vn -0.2834 0.9276 -0.2433
vn 0.6596 -0.1502 -0.7364
vn 0.7718 -0.3870 0.5046
vn -0.0835 0.9784 0.1892
vn 0.2681 0.9459 0.1829
usemtl None
s off
f 71/1/1 43/2/1 44/3/1
f 1/4/2 2/5/2 86/6/2
f 51/7/3 52/8/3 39/9/3
f 1/4/4 3/10/4 2/5/4
f 12/11/5 10/12/5 9/13/5
f 8/14/5 5/15/5 6/16/5
f 17/17/6 60/18/6 61/19/6
f 20/20/4 18/21/4 19/22/4
f 22/23/7 52/24/7 51/25/7
f 22/23/8 24/26/8 23/27/8
f 19/22/9 18/21/9 68/28/9
f 56/29/10 55/30/10 25/31/10
f 25/31/11 26/32/11 27/33/11
f 33/34/12 32/35/12 48/36/12
f 28/37/13 29/38/13 47/39/13
f 47/39/14 29/38/14 30/40/14
f 28/37/8 30/40/8 29/38/8
f 27/33/12 26/32/12 54/41/12
f 25/31/15 55/30/15 54/41/15
f 31/42/11 32/35/11 33/34/11
f 31/42/15 49/43/15 48/36/15
f 34/44/16 36/45/16 42/46/16
f 49/47/17 38/48/17 48/49/17
f 40/50/18 34/51/18 37/52/18
f 56/53/17 34/44/17 55/54/17
f 39/9/19 42/46/19 44/3/19
f 40/50/20 37/52/20 39/55/20
f 43/2/21 60/56/21 44/3/21
f 43/2/22 72/57/22 40/50/22
f 70/58/23 10/12/23 11/59/23
f 53/60/14 23/27/14 24/26/14
f 20/20/24 21/61/24 64/62/24
f 17/17/25 16/63/25 66/64/25
f 87/65/26 3/10/26 1/4/26
f 81/66/27 6/16/27 82/67/27
f 9/13/28 71/68/28 69/69/28
f 76/70/29 12/11/29 75/71/29
f 12/11/30 74/72/30 75/71/30
f 8/14/31 79/73/31 78/74/31
f 88/75/32 3/10/32 87/65/32
f 15/76/4 14/77/4 16/63/4
f 22/23/13 23/27/13 53/60/13
f 21/61/33 19/22/33 67/78/33
f 41/79/34 75/80/34 74/81/34
f 31/42/10 33/34/10 50/82/10
f 71/1/1 44/3/1 69/83/1
f 87/84/35 34/51/35 38/85/35
f 1/4/2 86/6/2 85/86/2
f 84/87/36 35/88/36 82/89/36
f 62/90/37 40/50/37 63/91/37
f 36/45/38 65/92/38 35/88/38
f 38/85/39 86/93/39 88/94/39
f 5/15/40 4/95/40 83/96/40
f 40/50/41 58/97/41 57/98/41
f 14/77/42 15/76/42 59/99/42
f 78/100/43 36/45/43 77/101/43
f 14/77/44 57/102/44 58/103/44
f 44/3/45 73/104/45 69/105/45
f 13/106/46 9/13/46 69/69/46
f 62/107/47 63/108/47 18/21/47
f 77/109/48 4/95/48 8/14/48
f 45/110/7 30/40/7 28/37/7
f 40/50/49 80/111/49 81/112/49
f 84/113/50 82/67/50 6/16/50
f 83/96/51 4/95/51 77/109/51
f 83/114/52 77/115/52 36/45/52
f 42/46/3 52/8/3 46/116/3
f 39/9/3 47/117/3 53/118/3
f 54/119/17 55/54/17 49/47/17
f 10/12/5 12/11/5 11/59/5
f 12/11/5 9/13/5 13/106/5
f 5/15/5 8/14/5 4/95/5
f 8/14/5 6/16/5 7/120/5
f 17/17/6 61/19/6 15/76/6
f 20/20/4 19/22/4 21/61/4
f 22/23/7 51/25/7 24/26/7
f 19/22/9 68/28/9 67/121/9
f 68/28/9 18/21/9 63/122/9
f 56/29/10 25/31/10 27/33/10
f 33/34/12 48/36/12 50/82/12
f 28/37/13 47/39/13 46/123/13
f 47/39/14 30/40/14 45/110/14
f 27/33/12 54/41/12 56/29/12
f 25/31/15 54/41/15 26/32/15
f 31/42/15 48/36/15 32/35/15
f 48/49/17 38/48/17 34/44/17
f 38/48/17 49/47/17 42/46/17
f 55/54/17 42/46/17 49/47/17
f 34/44/17 54/119/17 48/49/17
f 48/49/17 54/119/17 50/124/17
f 55/54/17 34/44/17 42/46/17
f 34/44/17 56/53/17 54/119/17
f 61/125/21 43/2/21 59/126/21
f 44/3/21 60/56/21 39/9/21
f 39/9/21 60/56/21 66/127/21
f 60/56/21 43/2/21 61/125/21
f 70/128/22 43/2/22 71/1/22
f 40/50/22 72/57/22 76/129/22
f 72/57/22 43/2/22 70/128/22
f 70/58/23 11/59/23 72/130/23
f 53/60/14 24/26/14 51/25/14
f 20/20/24 64/62/24 62/131/24
f 64/62/24 21/61/24 65/132/24
f 17/17/25 66/64/25 60/133/25
f 66/64/25 16/63/25 58/134/25
f 87/65/26 1/4/26 85/86/26
f 6/16/27 81/66/27 7/120/27
f 7/120/27 81/66/27 80/135/27
f 71/68/28 10/12/28 70/58/28
f 10/12/28 71/68/28 9/13/28
f 12/11/29 76/70/29 11/59/29
f 11/59/29 76/70/29 72/130/29
f 74/72/30 13/106/30 73/136/30
f 13/106/30 74/72/30 12/11/30
f 79/73/31 7/120/31 80/135/31
f 7/120/31 79/73/31 8/14/31
f 3/10/32 88/75/32 2/5/32
f 2/5/32 88/75/32 86/6/32
f 15/76/4 16/63/4 17/17/4
f 22/23/13 53/60/13 52/24/13
f 21/61/33 67/78/33 65/137/33
f 75/80/34 40/50/34 76/129/34
f 40/50/34 75/80/34 41/79/34
f 31/42/10 50/82/10 49/43/10
f 37/52/35 34/51/35 85/138/35
f 85/138/35 34/51/35 87/84/35
f 87/84/35 38/85/35 88/94/35
f 82/89/36 40/50/36 81/112/36
f 35/88/36 84/87/36 83/114/36
f 82/89/36 35/88/36 40/50/36
f 63/91/37 35/88/37 68/139/37
f 40/50/37 62/90/37 34/51/37
f 34/51/37 62/90/37 64/140/37
f 63/91/37 40/50/37 35/88/37
f 64/141/38 65/92/38 34/44/38
f 34/44/38 65/92/38 36/45/38
f 35/88/38 67/142/38 68/143/38
f 35/88/38 65/92/38 67/142/38
f 86/93/39 39/55/39 85/138/39
f 85/138/39 39/55/39 37/52/39
f 39/55/39 86/93/39 38/85/39
f 5/15/40 83/96/40 84/113/40
f 66/144/41 58/97/41 39/55/41
f 39/55/41 58/97/41 40/50/41
f 43/2/41 57/98/41 59/145/41
f 40/50/41 57/98/41 43/2/41
f 14/77/42 59/99/42 57/146/42
f 59/99/42 15/76/42 61/147/42
f 36/45/43 78/100/43 42/46/43
f 42/46/43 78/100/43 41/79/43
f 41/79/43 78/100/43 79/148/43
f 14/77/44 58/103/44 16/63/44
f 74/81/53 73/104/53 41/79/53
f 41/79/53 73/104/53 42/46/53
f 42/46/53 73/104/53 44/3/53
f 13/106/46 69/69/46 73/136/46
f 62/107/47 18/21/47 20/20/47
f 77/109/48 8/14/48 78/74/48
f 45/110/7 28/37/7 46/123/7
f 80/111/49 41/79/49 79/148/49
f 41/79/49 80/111/49 40/50/49
f 84/113/50 6/16/50 5/15/50
f 83/114/52 36/45/52 35/88/52
f 45/149/3 46/116/3 53/118/3
f 53/118/3 46/116/3 52/8/3
f 52/8/3 42/46/3 39/9/3
f 46/116/3 38/48/3 42/46/3
f 39/9/3 53/118/3 51/7/3
f 53/118/3 47/117/3 45/149/3
f 47/117/3 38/48/3 46/116/3
f 38/48/3 47/117/3 39/9/3
f 54/119/17 49/47/17 50/124/17
